solid OpenSCAD_Model
  facet normal 0.998427 0.0560707 0
    outer loop
      vertex 4 0 5
      vertex 3.97485 0.447858 -5
      vertex 3.97485 0.447858 5
    endloop
  endfacet
  facet normal 0.998427 0.0560707 0
    outer loop
      vertex 3.97485 0.447858 -5
      vertex 4 0 5
      vertex 4 0 -5
    endloop
  endfacet
  facet normal 0.985871 0.167506 0
    outer loop
      vertex 3.97485 0.447858 5
      vertex 3.89971 0.890084 -5
      vertex 3.89971 0.890084 5
    endloop
  endfacet
  facet normal 0.985871 0.167506 0
    outer loop
      vertex 3.89971 0.890084 -5
      vertex 3.97485 0.447858 5
      vertex 3.97485 0.447858 -5
    endloop
  endfacet
  facet normal 0.960917 0.276835 0
    outer loop
      vertex 3.89971 0.890084 5
      vertex 3.77553 1.32112 -5
      vertex 3.77553 1.32112 5
    endloop
  endfacet
  facet normal 0.960917 0.276835 0
    outer loop
      vertex 3.77553 1.32112 -5
      vertex 3.89971 0.890084 5
      vertex 3.89971 0.890084 -5
    endloop
  endfacet
  facet normal 0.923879 0.382684 0
    outer loop
      vertex 3.77553 1.32112 5
      vertex 3.60388 1.73553 -5
      vertex 3.60388 1.73553 5
    endloop
  endfacet
  facet normal 0.923879 0.382684 0
    outer loop
      vertex 3.60388 1.73553 -5
      vertex 3.77553 1.32112 5
      vertex 3.77553 1.32112 -5
    endloop
  endfacet
  facet normal 0.875224 0.483719 0
    outer loop
      vertex 3.60388 1.73553 5
      vertex 3.3869 2.12813 -5
      vertex 3.3869 2.12813 5
    endloop
  endfacet
  facet normal 0.875224 0.483719 0
    outer loop
      vertex 3.3869 2.12813 -5
      vertex 3.60388 1.73553 5
      vertex 3.60388 1.73553 -5
    endloop
  endfacet
  facet normal 0.815561 0.578671 0
    outer loop
      vertex 3.3869 2.12813 5
      vertex 3.12733 2.49396 -5
      vertex 3.12733 2.49396 5
    endloop
  endfacet
  facet normal 0.815561 0.578671 0
    outer loop
      vertex 3.12733 2.49396 -5
      vertex 3.3869 2.12813 5
      vertex 3.3869 2.12813 -5
    endloop
  endfacet
  facet normal 0.745642 0.666347 0
    outer loop
      vertex 3.12733 2.49396 5
      vertex 2.82843 2.82843 -5
      vertex 2.82843 2.82843 5
    endloop
  endfacet
  facet normal 0.745642 0.666347 0
    outer loop
      vertex 2.82843 2.82843 -5
      vertex 3.12733 2.49396 5
      vertex 3.12733 2.49396 -5
    endloop
  endfacet
  facet normal 0.666347 0.745642 -0
    outer loop
      vertex 2.82843 2.82843 -5
      vertex 2.49396 3.12733 5
      vertex 2.82843 2.82843 5
    endloop
  endfacet
  facet normal 0.666347 0.745642 0
    outer loop
      vertex 2.49396 3.12733 5
      vertex 2.82843 2.82843 -5
      vertex 2.49396 3.12733 -5
    endloop
  endfacet
  facet normal 0.578671 0.815561 -0
    outer loop
      vertex 2.49396 3.12733 -5
      vertex 2.12813 3.3869 5
      vertex 2.49396 3.12733 5
    endloop
  endfacet
  facet normal 0.578671 0.815561 0
    outer loop
      vertex 2.12813 3.3869 5
      vertex 2.49396 3.12733 -5
      vertex 2.12813 3.3869 -5
    endloop
  endfacet
  facet normal 0.483719 0.875224 -0
    outer loop
      vertex 2.12813 3.3869 -5
      vertex 1.73553 3.60388 5
      vertex 2.12813 3.3869 5
    endloop
  endfacet
  facet normal 0.483719 0.875224 0
    outer loop
      vertex 1.73553 3.60388 5
      vertex 2.12813 3.3869 -5
      vertex 1.73553 3.60388 -5
    endloop
  endfacet
  facet normal 0.382684 0.923879 -0
    outer loop
      vertex 1.73553 3.60388 -5
      vertex 1.32112 3.77553 5
      vertex 1.73553 3.60388 5
    endloop
  endfacet
  facet normal 0.382684 0.923879 0
    outer loop
      vertex 1.32112 3.77553 5
      vertex 1.73553 3.60388 -5
      vertex 1.32112 3.77553 -5
    endloop
  endfacet
  facet normal 0.276835 0.960917 -0
    outer loop
      vertex 1.32112 3.77553 -5
      vertex 0.890084 3.89971 5
      vertex 1.32112 3.77553 5
    endloop
  endfacet
  facet normal 0.276835 0.960917 0
    outer loop
      vertex 0.890084 3.89971 5
      vertex 1.32112 3.77553 -5
      vertex 0.890084 3.89971 -5
    endloop
  endfacet
  facet normal 0.167506 0.985871 -0
    outer loop
      vertex 0.890084 3.89971 -5
      vertex 0.447858 3.97485 5
      vertex 0.890084 3.89971 5
    endloop
  endfacet
  facet normal 0.167506 0.985871 0
    outer loop
      vertex 0.447858 3.97485 5
      vertex 0.890084 3.89971 -5
      vertex 0.447858 3.97485 -5
    endloop
  endfacet
  facet normal 0.0560707 0.998427 -0
    outer loop
      vertex 0.447858 3.97485 -5
      vertex 2.44921e-016 4 5
      vertex 0.447858 3.97485 5
    endloop
  endfacet
  facet normal 0.0560707 0.998427 0
    outer loop
      vertex 2.44921e-016 4 5
      vertex 0.447858 3.97485 -5
      vertex 2.44921e-016 4 -5
    endloop
  endfacet
  facet normal -0.0560707 0.998427 0
    outer loop
      vertex 2.44921e-016 4 -5
      vertex -0.447858 3.97485 5
      vertex 2.44921e-016 4 5
    endloop
  endfacet
  facet normal -0.0560707 0.998427 0
    outer loop
      vertex -0.447858 3.97485 5
      vertex 2.44921e-016 4 -5
      vertex -0.447858 3.97485 -5
    endloop
  endfacet
  facet normal -0.167506 0.985871 0
    outer loop
      vertex -0.447858 3.97485 -5
      vertex -0.890084 3.89971 5
      vertex -0.447858 3.97485 5
    endloop
  endfacet
  facet normal -0.167506 0.985871 0
    outer loop
      vertex -0.890084 3.89971 5
      vertex -0.447858 3.97485 -5
      vertex -0.890084 3.89971 -5
    endloop
  endfacet
  facet normal -0.276835 0.960917 0
    outer loop
      vertex -0.890084 3.89971 -5
      vertex -1.32112 3.77553 5
      vertex -0.890084 3.89971 5
    endloop
  endfacet
  facet normal -0.276835 0.960917 0
    outer loop
      vertex -1.32112 3.77553 5
      vertex -0.890084 3.89971 -5
      vertex -1.32112 3.77553 -5
    endloop
  endfacet
  facet normal -0.382684 0.923879 0
    outer loop
      vertex -1.32112 3.77553 -5
      vertex -1.73553 3.60388 5
      vertex -1.32112 3.77553 5
    endloop
  endfacet
  facet normal -0.382684 0.923879 0
    outer loop
      vertex -1.73553 3.60388 5
      vertex -1.32112 3.77553 -5
      vertex -1.73553 3.60388 -5
    endloop
  endfacet
  facet normal -0.483719 0.875224 0
    outer loop
      vertex -1.73553 3.60388 -5
      vertex -2.12813 3.3869 5
      vertex -1.73553 3.60388 5
    endloop
  endfacet
  facet normal -0.483719 0.875224 0
    outer loop
      vertex -2.12813 3.3869 5
      vertex -1.73553 3.60388 -5
      vertex -2.12813 3.3869 -5
    endloop
  endfacet
  facet normal -0.578671 0.815561 0
    outer loop
      vertex -2.12813 3.3869 -5
      vertex -2.49396 3.12733 5
      vertex -2.12813 3.3869 5
    endloop
  endfacet
  facet normal -0.578671 0.815561 0
    outer loop
      vertex -2.49396 3.12733 5
      vertex -2.12813 3.3869 -5
      vertex -2.49396 3.12733 -5
    endloop
  endfacet
  facet normal -0.666347 0.745642 0
    outer loop
      vertex -2.49396 3.12733 -5
      vertex -2.82843 2.82843 5
      vertex -2.49396 3.12733 5
    endloop
  endfacet
  facet normal -0.666347 0.745642 0
    outer loop
      vertex -2.82843 2.82843 5
      vertex -2.49396 3.12733 -5
      vertex -2.82843 2.82843 -5
    endloop
  endfacet
  facet normal -0.745642 0.666347 0
    outer loop
      vertex -3.12733 2.49396 -5
      vertex -2.82843 2.82843 5
      vertex -2.82843 2.82843 -5
    endloop
  endfacet
  facet normal -0.745642 0.666347 0
    outer loop
      vertex -2.82843 2.82843 5
      vertex -3.12733 2.49396 -5
      vertex -3.12733 2.49396 5
    endloop
  endfacet
  facet normal -0.815561 0.578671 0
    outer loop
      vertex -3.3869 2.12813 -5
      vertex -3.12733 2.49396 5
      vertex -3.12733 2.49396 -5
    endloop
  endfacet
  facet normal -0.815561 0.578671 0
    outer loop
      vertex -3.12733 2.49396 5
      vertex -3.3869 2.12813 -5
      vertex -3.3869 2.12813 5
    endloop
  endfacet
  facet normal -0.875224 0.483719 0
    outer loop
      vertex -3.60388 1.73553 -5
      vertex -3.3869 2.12813 5
      vertex -3.3869 2.12813 -5
    endloop
  endfacet
  facet normal -0.875224 0.483719 0
    outer loop
      vertex -3.3869 2.12813 5
      vertex -3.60388 1.73553 -5
      vertex -3.60388 1.73553 5
    endloop
  endfacet
  facet normal -0.923879 0.382684 0
    outer loop
      vertex -3.77553 1.32112 -5
      vertex -3.60388 1.73553 5
      vertex -3.60388 1.73553 -5
    endloop
  endfacet
  facet normal -0.923879 0.382684 0
    outer loop
      vertex -3.60388 1.73553 5
      vertex -3.77553 1.32112 -5
      vertex -3.77553 1.32112 5
    endloop
  endfacet
  facet normal -0.960917 0.276835 0
    outer loop
      vertex -3.89971 0.890084 -5
      vertex -3.77553 1.32112 5
      vertex -3.77553 1.32112 -5
    endloop
  endfacet
  facet normal -0.960917 0.276835 0
    outer loop
      vertex -3.77553 1.32112 5
      vertex -3.89971 0.890084 -5
      vertex -3.89971 0.890084 5
    endloop
  endfacet
  facet normal -0.985871 0.167506 0
    outer loop
      vertex -3.97485 0.447858 -5
      vertex -3.89971 0.890084 5
      vertex -3.89971 0.890084 -5
    endloop
  endfacet
  facet normal -0.985871 0.167506 0
    outer loop
      vertex -3.89971 0.890084 5
      vertex -3.97485 0.447858 -5
      vertex -3.97485 0.447858 5
    endloop
  endfacet
  facet normal -0.998427 0.0560707 0
    outer loop
      vertex -4 4.89843e-016 -5
      vertex -3.97485 0.447858 5
      vertex -3.97485 0.447858 -5
    endloop
  endfacet
  facet normal -0.998427 0.0560707 0
    outer loop
      vertex -3.97485 0.447858 5
      vertex -4 4.89843e-016 -5
      vertex -4 4.89843e-016 5
    endloop
  endfacet
  facet normal -0.998427 -0.0560707 0
    outer loop
      vertex -3.97485 -0.447858 -5
      vertex -4 4.89843e-016 5
      vertex -4 4.89843e-016 -5
    endloop
  endfacet
  facet normal -0.998427 -0.0560707 0
    outer loop
      vertex -4 4.89843e-016 5
      vertex -3.97485 -0.447858 -5
      vertex -3.97485 -0.447858 5
    endloop
  endfacet
  facet normal -0.985871 -0.167506 0
    outer loop
      vertex -3.89971 -0.890084 -5
      vertex -3.97485 -0.447858 5
      vertex -3.97485 -0.447858 -5
    endloop
  endfacet
  facet normal -0.985871 -0.167506 0
    outer loop
      vertex -3.97485 -0.447858 5
      vertex -3.89971 -0.890084 -5
      vertex -3.89971 -0.890084 5
    endloop
  endfacet
  facet normal -0.960917 -0.276835 0
    outer loop
      vertex -3.77553 -1.32112 -5
      vertex -3.89971 -0.890084 5
      vertex -3.89971 -0.890084 -5
    endloop
  endfacet
  facet normal -0.960917 -0.276835 0
    outer loop
      vertex -3.89971 -0.890084 5
      vertex -3.77553 -1.32112 -5
      vertex -3.77553 -1.32112 5
    endloop
  endfacet
  facet normal -0.923879 -0.382684 0
    outer loop
      vertex -3.60388 -1.73553 -5
      vertex -3.77553 -1.32112 5
      vertex -3.77553 -1.32112 -5
    endloop
  endfacet
  facet normal -0.923879 -0.382684 0
    outer loop
      vertex -3.77553 -1.32112 5
      vertex -3.60388 -1.73553 -5
      vertex -3.60388 -1.73553 5
    endloop
  endfacet
  facet normal -0.875224 -0.483719 0
    outer loop
      vertex -3.3869 -2.12813 -5
      vertex -3.60388 -1.73553 5
      vertex -3.60388 -1.73553 -5
    endloop
  endfacet
  facet normal -0.875224 -0.483719 0
    outer loop
      vertex -3.60388 -1.73553 5
      vertex -3.3869 -2.12813 -5
      vertex -3.3869 -2.12813 5
    endloop
  endfacet
  facet normal -0.815561 -0.578671 0
    outer loop
      vertex -3.12733 -2.49396 -5
      vertex -3.3869 -2.12813 5
      vertex -3.3869 -2.12813 -5
    endloop
  endfacet
  facet normal -0.815561 -0.578671 0
    outer loop
      vertex -3.3869 -2.12813 5
      vertex -3.12733 -2.49396 -5
      vertex -3.12733 -2.49396 5
    endloop
  endfacet
  facet normal -0.745642 -0.666347 0
    outer loop
      vertex -2.82843 -2.82843 -5
      vertex -3.12733 -2.49396 5
      vertex -3.12733 -2.49396 -5
    endloop
  endfacet
  facet normal -0.745642 -0.666347 0
    outer loop
      vertex -3.12733 -2.49396 5
      vertex -2.82843 -2.82843 -5
      vertex -2.82843 -2.82843 5
    endloop
  endfacet
  facet normal -0.666347 -0.745642 0
    outer loop
      vertex -2.82843 -2.82843 -5
      vertex -2.49396 -3.12733 5
      vertex -2.82843 -2.82843 5
    endloop
  endfacet
  facet normal -0.666347 -0.745642 -0
    outer loop
      vertex -2.49396 -3.12733 5
      vertex -2.82843 -2.82843 -5
      vertex -2.49396 -3.12733 -5
    endloop
  endfacet
  facet normal -0.578671 -0.815561 0
    outer loop
      vertex -2.49396 -3.12733 -5
      vertex -2.12813 -3.3869 5
      vertex -2.49396 -3.12733 5
    endloop
  endfacet
  facet normal -0.578671 -0.815561 -0
    outer loop
      vertex -2.12813 -3.3869 5
      vertex -2.49396 -3.12733 -5
      vertex -2.12813 -3.3869 -5
    endloop
  endfacet
  facet normal -0.483719 -0.875224 0
    outer loop
      vertex -2.12813 -3.3869 -5
      vertex -1.73553 -3.60388 5
      vertex -2.12813 -3.3869 5
    endloop
  endfacet
  facet normal -0.483719 -0.875224 -0
    outer loop
      vertex -1.73553 -3.60388 5
      vertex -2.12813 -3.3869 -5
      vertex -1.73553 -3.60388 -5
    endloop
  endfacet
  facet normal -0.382684 -0.923879 0
    outer loop
      vertex -1.73553 -3.60388 -5
      vertex -1.32112 -3.77553 5
      vertex -1.73553 -3.60388 5
    endloop
  endfacet
  facet normal -0.382684 -0.923879 -0
    outer loop
      vertex -1.32112 -3.77553 5
      vertex -1.73553 -3.60388 -5
      vertex -1.32112 -3.77553 -5
    endloop
  endfacet
  facet normal -0.276835 -0.960917 0
    outer loop
      vertex -1.32112 -3.77553 -5
      vertex -0.890084 -3.89971 5
      vertex -1.32112 -3.77553 5
    endloop
  endfacet
  facet normal -0.276835 -0.960917 -0
    outer loop
      vertex -0.890084 -3.89971 5
      vertex -1.32112 -3.77553 -5
      vertex -0.890084 -3.89971 -5
    endloop
  endfacet
  facet normal -0.167506 -0.985871 0
    outer loop
      vertex -0.890084 -3.89971 -5
      vertex -0.447858 -3.97485 5
      vertex -0.890084 -3.89971 5
    endloop
  endfacet
  facet normal -0.167506 -0.985871 -0
    outer loop
      vertex -0.447858 -3.97485 5
      vertex -0.890084 -3.89971 -5
      vertex -0.447858 -3.97485 -5
    endloop
  endfacet
  facet normal -0.0560707 -0.998427 0
    outer loop
      vertex -0.447858 -3.97485 -5
      vertex -7.34764e-016 -4 5
      vertex -0.447858 -3.97485 5
    endloop
  endfacet
  facet normal -0.0560707 -0.998427 -0
    outer loop
      vertex -7.34764e-016 -4 5
      vertex -0.447858 -3.97485 -5
      vertex -7.34764e-016 -4 -5
    endloop
  endfacet
  facet normal 0.0560707 -0.998427 0
    outer loop
      vertex -7.34764e-016 -4 -5
      vertex 0.447858 -3.97485 5
      vertex -7.34764e-016 -4 5
    endloop
  endfacet
  facet normal 0.0560707 -0.998427 0
    outer loop
      vertex 0.447858 -3.97485 5
      vertex -7.34764e-016 -4 -5
      vertex 0.447858 -3.97485 -5
    endloop
  endfacet
  facet normal 0.167506 -0.985871 0
    outer loop
      vertex 0.447858 -3.97485 -5
      vertex 0.890084 -3.89971 5
      vertex 0.447858 -3.97485 5
    endloop
  endfacet
  facet normal 0.167506 -0.985871 0
    outer loop
      vertex 0.890084 -3.89971 5
      vertex 0.447858 -3.97485 -5
      vertex 0.890084 -3.89971 -5
    endloop
  endfacet
  facet normal 0.276835 -0.960917 0
    outer loop
      vertex 0.890084 -3.89971 -5
      vertex 1.32112 -3.77553 5
      vertex 0.890084 -3.89971 5
    endloop
  endfacet
  facet normal 0.276835 -0.960917 0
    outer loop
      vertex 1.32112 -3.77553 5
      vertex 0.890084 -3.89971 -5
      vertex 1.32112 -3.77553 -5
    endloop
  endfacet
  facet normal 0.382684 -0.923879 0
    outer loop
      vertex 1.32112 -3.77553 -5
      vertex 1.73553 -3.60388 5
      vertex 1.32112 -3.77553 5
    endloop
  endfacet
  facet normal 0.382684 -0.923879 0
    outer loop
      vertex 1.73553 -3.60388 5
      vertex 1.32112 -3.77553 -5
      vertex 1.73553 -3.60388 -5
    endloop
  endfacet
  facet normal 0.483719 -0.875224 0
    outer loop
      vertex 1.73553 -3.60388 -5
      vertex 2.12813 -3.3869 5
      vertex 1.73553 -3.60388 5
    endloop
  endfacet
  facet normal 0.483719 -0.875224 0
    outer loop
      vertex 2.12813 -3.3869 5
      vertex 1.73553 -3.60388 -5
      vertex 2.12813 -3.3869 -5
    endloop
  endfacet
  facet normal 0.578671 -0.815561 0
    outer loop
      vertex 2.12813 -3.3869 -5
      vertex 2.49396 -3.12733 5
      vertex 2.12813 -3.3869 5
    endloop
  endfacet
  facet normal 0.578671 -0.815561 0
    outer loop
      vertex 2.49396 -3.12733 5
      vertex 2.12813 -3.3869 -5
      vertex 2.49396 -3.12733 -5
    endloop
  endfacet
  facet normal 0.666347 -0.745642 0
    outer loop
      vertex 2.49396 -3.12733 -5
      vertex 2.82843 -2.82843 5
      vertex 2.49396 -3.12733 5
    endloop
  endfacet
  facet normal 0.666347 -0.745642 0
    outer loop
      vertex 2.82843 -2.82843 5
      vertex 2.49396 -3.12733 -5
      vertex 2.82843 -2.82843 -5
    endloop
  endfacet
  facet normal 0.745642 -0.666347 0
    outer loop
      vertex 2.82843 -2.82843 5
      vertex 3.12733 -2.49396 -5
      vertex 3.12733 -2.49396 5
    endloop
  endfacet
  facet normal 0.745642 -0.666347 0
    outer loop
      vertex 3.12733 -2.49396 -5
      vertex 2.82843 -2.82843 5
      vertex 2.82843 -2.82843 -5
    endloop
  endfacet
  facet normal 0.815561 -0.578671 0
    outer loop
      vertex 3.12733 -2.49396 5
      vertex 3.3869 -2.12813 -5
      vertex 3.3869 -2.12813 5
    endloop
  endfacet
  facet normal 0.815561 -0.578671 0
    outer loop
      vertex 3.3869 -2.12813 -5
      vertex 3.12733 -2.49396 5
      vertex 3.12733 -2.49396 -5
    endloop
  endfacet
  facet normal 0.875224 -0.483719 0
    outer loop
      vertex 3.3869 -2.12813 5
      vertex 3.60388 -1.73553 -5
      vertex 3.60388 -1.73553 5
    endloop
  endfacet
  facet normal 0.875224 -0.483719 0
    outer loop
      vertex 3.60388 -1.73553 -5
      vertex 3.3869 -2.12813 5
      vertex 3.3869 -2.12813 -5
    endloop
  endfacet
  facet normal 0.923879 -0.382684 0
    outer loop
      vertex 3.60388 -1.73553 5
      vertex 3.77553 -1.32112 -5
      vertex 3.77553 -1.32112 5
    endloop
  endfacet
  facet normal 0.923879 -0.382684 0
    outer loop
      vertex 3.77553 -1.32112 -5
      vertex 3.60388 -1.73553 5
      vertex 3.60388 -1.73553 -5
    endloop
  endfacet
  facet normal 0.960917 -0.276835 0
    outer loop
      vertex 3.77553 -1.32112 5
      vertex 3.89971 -0.890084 -5
      vertex 3.89971 -0.890084 5
    endloop
  endfacet
  facet normal 0.960917 -0.276835 0
    outer loop
      vertex 3.89971 -0.890084 -5
      vertex 3.77553 -1.32112 5
      vertex 3.77553 -1.32112 -5
    endloop
  endfacet
  facet normal 0.985871 -0.167506 0
    outer loop
      vertex 3.89971 -0.890084 5
      vertex 3.97485 -0.447858 -5
      vertex 3.97485 -0.447858 5
    endloop
  endfacet
  facet normal 0.985871 -0.167506 0
    outer loop
      vertex 3.97485 -0.447858 -5
      vertex 3.89971 -0.890084 5
      vertex 3.89971 -0.890084 -5
    endloop
  endfacet
  facet normal 0.998427 -0.0560707 0
    outer loop
      vertex 3.97485 -0.447858 5
      vertex 4 0 -5
      vertex 4 0 5
    endloop
  endfacet
  facet normal 0.998427 -0.0560707 0
    outer loop
      vertex 4 0 -5
      vertex 3.97485 -0.447858 5
      vertex 3.97485 -0.447858 -5
    endloop
  endfacet
  facet normal 0 0 -1
    outer loop
      vertex 3.97485 -0.447858 -5
      vertex 3.97485 0.447858 -5
      vertex 4 0 -5
    endloop
  endfacet
  facet normal 0 0 -1
    outer loop
      vertex 3.89971 -0.890084 -5
      vertex 3.97485 0.447858 -5
      vertex 3.97485 -0.447858 -5
    endloop
  endfacet
  facet normal 0 0 -1
    outer loop
      vertex 3.89971 -0.890084 -5
      vertex 3.89971 0.890084 -5
      vertex 3.97485 0.447858 -5
    endloop
  endfacet
  facet normal 0 0 -1
    outer loop
      vertex 3.77553 -1.32112 -5
      vertex 3.89971 0.890084 -5
      vertex 3.89971 -0.890084 -5
    endloop
  endfacet
  facet normal 0 0 -1
    outer loop
      vertex 3.77553 -1.32112 -5
      vertex 3.77553 1.32112 -5
      vertex 3.89971 0.890084 -5
    endloop
  endfacet
  facet normal 0 0 -1
    outer loop
      vertex 3.60388 -1.73553 -5
      vertex 3.77553 1.32112 -5
      vertex 3.77553 -1.32112 -5
    endloop
  endfacet
  facet normal 0 0 -1
    outer loop
      vertex 3.60388 -1.73553 -5
      vertex 3.60388 1.73553 -5
      vertex 3.77553 1.32112 -5
    endloop
  endfacet
  facet normal 0 0 -1
    outer loop
      vertex 3.3869 -2.12813 -5
      vertex 3.60388 1.73553 -5
      vertex 3.60388 -1.73553 -5
    endloop
  endfacet
  facet normal 0 0 -1
    outer loop
      vertex 3.3869 -2.12813 -5
      vertex 3.3869 2.12813 -5
      vertex 3.60388 1.73553 -5
    endloop
  endfacet
  facet normal 0 0 -1
    outer loop
      vertex 3.12733 -2.49396 -5
      vertex 3.3869 2.12813 -5
      vertex 3.3869 -2.12813 -5
    endloop
  endfacet
  facet normal 0 0 -1
    outer loop
      vertex 3.12733 -2.49396 -5
      vertex 3.12733 2.49396 -5
      vertex 3.3869 2.12813 -5
    endloop
  endfacet
  facet normal 0 0 -1
    outer loop
      vertex 2.82843 -2.82843 -5
      vertex 3.12733 2.49396 -5
      vertex 3.12733 -2.49396 -5
    endloop
  endfacet
  facet normal 0 0 -1
    outer loop
      vertex 2.82843 -2.82843 -5
      vertex 2.82843 2.82843 -5
      vertex 3.12733 2.49396 -5
    endloop
  endfacet
  facet normal 0 0 -1
    outer loop
      vertex 2.49396 -3.12733 -5
      vertex 2.82843 2.82843 -5
      vertex 2.82843 -2.82843 -5
    endloop
  endfacet
  facet normal 0 0 -1
    outer loop
      vertex 2.49396 -3.12733 -5
      vertex 2.49396 3.12733 -5
      vertex 2.82843 2.82843 -5
    endloop
  endfacet
  facet normal 0 0 -1
    outer loop
      vertex 2.12813 -3.3869 -5
      vertex 2.49396 3.12733 -5
      vertex 2.49396 -3.12733 -5
    endloop
  endfacet
  facet normal 0 0 -1
    outer loop
      vertex 2.12813 -3.3869 -5
      vertex 2.12813 3.3869 -5
      vertex 2.49396 3.12733 -5
    endloop
  endfacet
  facet normal 0 0 -1
    outer loop
      vertex 1.73553 -3.60388 -5
      vertex 2.12813 3.3869 -5
      vertex 2.12813 -3.3869 -5
    endloop
  endfacet
  facet normal 0 0 -1
    outer loop
      vertex 1.73553 -3.60388 -5
      vertex 1.73553 3.60388 -5
      vertex 2.12813 3.3869 -5
    endloop
  endfacet
  facet normal 0 0 -1
    outer loop
      vertex 1.32112 -3.77553 -5
      vertex 1.73553 3.60388 -5
      vertex 1.73553 -3.60388 -5
    endloop
  endfacet
  facet normal 0 0 -1
    outer loop
      vertex 1.32112 -3.77553 -5
      vertex 1.32112 3.77553 -5
      vertex 1.73553 3.60388 -5
    endloop
  endfacet
  facet normal 0 0 -1
    outer loop
      vertex 0.890084 -3.89971 -5
      vertex 1.32112 3.77553 -5
      vertex 1.32112 -3.77553 -5
    endloop
  endfacet
  facet normal 0 0 -1
    outer loop
      vertex 0.890084 -3.89971 -5
      vertex 0.890084 3.89971 -5
      vertex 1.32112 3.77553 -5
    endloop
  endfacet
  facet normal 0 0 -1
    outer loop
      vertex 0.447858 -3.97485 -5
      vertex 0.890084 3.89971 -5
      vertex 0.890084 -3.89971 -5
    endloop
  endfacet
  facet normal 0 0 -1
    outer loop
      vertex 0.447858 -3.97485 -5
      vertex 0.447858 3.97485 -5
      vertex 0.890084 3.89971 -5
    endloop
  endfacet
  facet normal 0 0 -1
    outer loop
      vertex 0.447858 -3.97485 -5
      vertex 2.44921e-016 4 -5
      vertex 0.447858 3.97485 -5
    endloop
  endfacet
  facet normal 0 0 -1
    outer loop
      vertex -7.34764e-016 -4 -5
      vertex 2.44921e-016 4 -5
      vertex 0.447858 -3.97485 -5
    endloop
  endfacet
  facet normal 0 0 -1
    outer loop
      vertex -0.447858 -3.97485 -5
      vertex 2.44921e-016 4 -5
      vertex -7.34764e-016 -4 -5
    endloop
  endfacet
  facet normal 0 0 -1
    outer loop
      vertex -0.447858 -3.97485 -5
      vertex -0.447858 3.97485 -5
      vertex 2.44921e-016 4 -5
    endloop
  endfacet
  facet normal 0 0 -1
    outer loop
      vertex -0.890084 -3.89971 -5
      vertex -0.447858 3.97485 -5
      vertex -0.447858 -3.97485 -5
    endloop
  endfacet
  facet normal 0 0 -1
    outer loop
      vertex -0.890084 -3.89971 -5
      vertex -0.890084 3.89971 -5
      vertex -0.447858 3.97485 -5
    endloop
  endfacet
  facet normal 0 0 -1
    outer loop
      vertex -1.32112 -3.77553 -5
      vertex -0.890084 3.89971 -5
      vertex -0.890084 -3.89971 -5
    endloop
  endfacet
  facet normal 0 0 -1
    outer loop
      vertex -1.32112 -3.77553 -5
      vertex -1.32112 3.77553 -5
      vertex -0.890084 3.89971 -5
    endloop
  endfacet
  facet normal 0 0 -1
    outer loop
      vertex -1.73553 -3.60388 -5
      vertex -1.32112 3.77553 -5
      vertex -1.32112 -3.77553 -5
    endloop
  endfacet
  facet normal 0 0 -1
    outer loop
      vertex -1.73553 -3.60388 -5
      vertex -1.73553 3.60388 -5
      vertex -1.32112 3.77553 -5
    endloop
  endfacet
  facet normal 0 0 -1
    outer loop
      vertex -2.12813 -3.3869 -5
      vertex -1.73553 3.60388 -5
      vertex -1.73553 -3.60388 -5
    endloop
  endfacet
  facet normal 0 0 -1
    outer loop
      vertex -2.12813 -3.3869 -5
      vertex -2.12813 3.3869 -5
      vertex -1.73553 3.60388 -5
    endloop
  endfacet
  facet normal 0 0 -1
    outer loop
      vertex -2.49396 -3.12733 -5
      vertex -2.12813 3.3869 -5
      vertex -2.12813 -3.3869 -5
    endloop
  endfacet
  facet normal 0 0 -1
    outer loop
      vertex -2.49396 -3.12733 -5
      vertex -2.49396 3.12733 -5
      vertex -2.12813 3.3869 -5
    endloop
  endfacet
  facet normal 0 0 -1
    outer loop
      vertex -2.82843 -2.82843 -5
      vertex -2.49396 3.12733 -5
      vertex -2.49396 -3.12733 -5
    endloop
  endfacet
  facet normal 0 0 -1
    outer loop
      vertex -2.82843 -2.82843 -5
      vertex -2.82843 2.82843 -5
      vertex -2.49396 3.12733 -5
    endloop
  endfacet
  facet normal 0 0 -1
    outer loop
      vertex -3.12733 -2.49396 -5
      vertex -2.82843 2.82843 -5
      vertex -2.82843 -2.82843 -5
    endloop
  endfacet
  facet normal 0 0 -1
    outer loop
      vertex -3.12733 -2.49396 -5
      vertex -3.12733 2.49396 -5
      vertex -2.82843 2.82843 -5
    endloop
  endfacet
  facet normal 0 0 -1
    outer loop
      vertex -3.3869 -2.12813 -5
      vertex -3.12733 2.49396 -5
      vertex -3.12733 -2.49396 -5
    endloop
  endfacet
  facet normal 0 0 -1
    outer loop
      vertex -3.3869 -2.12813 -5
      vertex -3.3869 2.12813 -5
      vertex -3.12733 2.49396 -5
    endloop
  endfacet
  facet normal 0 0 -1
    outer loop
      vertex -3.60388 -1.73553 -5
      vertex -3.3869 2.12813 -5
      vertex -3.3869 -2.12813 -5
    endloop
  endfacet
  facet normal 0 0 -1
    outer loop
      vertex -3.60388 -1.73553 -5
      vertex -3.60388 1.73553 -5
      vertex -3.3869 2.12813 -5
    endloop
  endfacet
  facet normal 0 0 -1
    outer loop
      vertex -3.77553 -1.32112 -5
      vertex -3.60388 1.73553 -5
      vertex -3.60388 -1.73553 -5
    endloop
  endfacet
  facet normal 0 0 -1
    outer loop
      vertex -3.77553 -1.32112 -5
      vertex -3.77553 1.32112 -5
      vertex -3.60388 1.73553 -5
    endloop
  endfacet
  facet normal 0 0 -1
    outer loop
      vertex -3.89971 -0.890084 -5
      vertex -3.77553 1.32112 -5
      vertex -3.77553 -1.32112 -5
    endloop
  endfacet
  facet normal 0 0 -1
    outer loop
      vertex -3.89971 -0.890084 -5
      vertex -3.89971 0.890084 -5
      vertex -3.77553 1.32112 -5
    endloop
  endfacet
  facet normal 0 0 -1
    outer loop
      vertex -3.97485 -0.447858 -5
      vertex -3.89971 0.890084 -5
      vertex -3.89971 -0.890084 -5
    endloop
  endfacet
  facet normal 0 0 -1
    outer loop
      vertex -3.97485 -0.447858 -5
      vertex -3.97485 0.447858 -5
      vertex -3.89971 0.890084 -5
    endloop
  endfacet
  facet normal 0 -0 -1
    outer loop
      vertex -3.97485 0.447858 -5
      vertex -3.97485 -0.447858 -5
      vertex -4 4.89843e-016 -5
    endloop
  endfacet
  facet normal 0 0 1
    outer loop
      vertex 3.97485 0.447858 5
      vertex 3.97485 -0.447858 5
      vertex 4 0 5
    endloop
  endfacet
  facet normal 0 0 1
    outer loop
      vertex 3.89971 0.890084 5
      vertex 3.97485 -0.447858 5
      vertex 3.97485 0.447858 5
    endloop
  endfacet
  facet normal 0 0 1
    outer loop
      vertex 3.89971 0.890084 5
      vertex 3.89971 -0.890084 5
      vertex 3.97485 -0.447858 5
    endloop
  endfacet
  facet normal 0 0 1
    outer loop
      vertex 3.77553 1.32112 5
      vertex 3.89971 -0.890084 5
      vertex 3.89971 0.890084 5
    endloop
  endfacet
  facet normal 0 0 1
    outer loop
      vertex 3.77553 1.32112 5
      vertex 3.77553 -1.32112 5
      vertex 3.89971 -0.890084 5
    endloop
  endfacet
  facet normal 0 0 1
    outer loop
      vertex 3.60388 1.73553 5
      vertex 3.77553 -1.32112 5
      vertex 3.77553 1.32112 5
    endloop
  endfacet
  facet normal 0 0 1
    outer loop
      vertex 3.60388 1.73553 5
      vertex 3.60388 -1.73553 5
      vertex 3.77553 -1.32112 5
    endloop
  endfacet
  facet normal 0 0 1
    outer loop
      vertex 3.3869 2.12813 5
      vertex 3.60388 -1.73553 5
      vertex 3.60388 1.73553 5
    endloop
  endfacet
  facet normal 0 0 1
    outer loop
      vertex 3.3869 2.12813 5
      vertex 3.3869 -2.12813 5
      vertex 3.60388 -1.73553 5
    endloop
  endfacet
  facet normal 0 0 1
    outer loop
      vertex 3.12733 2.49396 5
      vertex 3.3869 -2.12813 5
      vertex 3.3869 2.12813 5
    endloop
  endfacet
  facet normal 0 0 1
    outer loop
      vertex 3.12733 2.49396 5
      vertex 3.12733 -2.49396 5
      vertex 3.3869 -2.12813 5
    endloop
  endfacet
  facet normal 0 0 1
    outer loop
      vertex 2.82843 2.82843 5
      vertex 3.12733 -2.49396 5
      vertex 3.12733 2.49396 5
    endloop
  endfacet
  facet normal 0 0 1
    outer loop
      vertex 2.82843 2.82843 5
      vertex 2.82843 -2.82843 5
      vertex 3.12733 -2.49396 5
    endloop
  endfacet
  facet normal 0 0 1
    outer loop
      vertex 2.49396 3.12733 5
      vertex 2.82843 -2.82843 5
      vertex 2.82843 2.82843 5
    endloop
  endfacet
  facet normal 0 0 1
    outer loop
      vertex 2.49396 3.12733 5
      vertex 2.49396 -3.12733 5
      vertex 2.82843 -2.82843 5
    endloop
  endfacet
  facet normal 0 0 1
    outer loop
      vertex 2.12813 3.3869 5
      vertex 2.49396 -3.12733 5
      vertex 2.49396 3.12733 5
    endloop
  endfacet
  facet normal 0 0 1
    outer loop
      vertex 2.12813 3.3869 5
      vertex 2.12813 -3.3869 5
      vertex 2.49396 -3.12733 5
    endloop
  endfacet
  facet normal 0 0 1
    outer loop
      vertex 1.73553 3.60388 5
      vertex 2.12813 -3.3869 5
      vertex 2.12813 3.3869 5
    endloop
  endfacet
  facet normal 0 0 1
    outer loop
      vertex 1.73553 3.60388 5
      vertex 1.73553 -3.60388 5
      vertex 2.12813 -3.3869 5
    endloop
  endfacet
  facet normal 0 0 1
    outer loop
      vertex 1.32112 3.77553 5
      vertex 1.73553 -3.60388 5
      vertex 1.73553 3.60388 5
    endloop
  endfacet
  facet normal 0 0 1
    outer loop
      vertex 1.32112 3.77553 5
      vertex 1.32112 -3.77553 5
      vertex 1.73553 -3.60388 5
    endloop
  endfacet
  facet normal 0 0 1
    outer loop
      vertex 0.890084 3.89971 5
      vertex 1.32112 -3.77553 5
      vertex 1.32112 3.77553 5
    endloop
  endfacet
  facet normal 0 0 1
    outer loop
      vertex 0.890084 3.89971 5
      vertex 0.890084 -3.89971 5
      vertex 1.32112 -3.77553 5
    endloop
  endfacet
  facet normal 0 0 1
    outer loop
      vertex 0.447858 3.97485 5
      vertex 0.890084 -3.89971 5
      vertex 0.890084 3.89971 5
    endloop
  endfacet
  facet normal 0 0 1
    outer loop
      vertex 0.447858 3.97485 5
      vertex 0.447858 -3.97485 5
      vertex 0.890084 -3.89971 5
    endloop
  endfacet
  facet normal 0 0 1
    outer loop
      vertex 2.44921e-016 4 5
      vertex 0.447858 -3.97485 5
      vertex 0.447858 3.97485 5
    endloop
  endfacet
  facet normal 0 0 1
    outer loop
      vertex 2.44921e-016 4 5
      vertex -7.34764e-016 -4 5
      vertex 0.447858 -3.97485 5
    endloop
  endfacet
  facet normal -0 0 1
    outer loop
      vertex -0.447858 3.97485 5
      vertex -7.34764e-016 -4 5
      vertex 2.44921e-016 4 5
    endloop
  endfacet
  facet normal 0 0 1
    outer loop
      vertex -0.447858 3.97485 5
      vertex -0.447858 -3.97485 5
      vertex -7.34764e-016 -4 5
    endloop
  endfacet
  facet normal -0 0 1
    outer loop
      vertex -0.890084 3.89971 5
      vertex -0.447858 -3.97485 5
      vertex -0.447858 3.97485 5
    endloop
  endfacet
  facet normal 0 0 1
    outer loop
      vertex -0.890084 3.89971 5
      vertex -0.890084 -3.89971 5
      vertex -0.447858 -3.97485 5
    endloop
  endfacet
  facet normal -0 0 1
    outer loop
      vertex -1.32112 3.77553 5
      vertex -0.890084 -3.89971 5
      vertex -0.890084 3.89971 5
    endloop
  endfacet
  facet normal 0 0 1
    outer loop
      vertex -1.32112 3.77553 5
      vertex -1.32112 -3.77553 5
      vertex -0.890084 -3.89971 5
    endloop
  endfacet
  facet normal -0 0 1
    outer loop
      vertex -1.73553 3.60388 5
      vertex -1.32112 -3.77553 5
      vertex -1.32112 3.77553 5
    endloop
  endfacet
  facet normal 0 0 1
    outer loop
      vertex -1.73553 3.60388 5
      vertex -1.73553 -3.60388 5
      vertex -1.32112 -3.77553 5
    endloop
  endfacet
  facet normal -0 0 1
    outer loop
      vertex -2.12813 3.3869 5
      vertex -1.73553 -3.60388 5
      vertex -1.73553 3.60388 5
    endloop
  endfacet
  facet normal 0 0 1
    outer loop
      vertex -2.12813 3.3869 5
      vertex -2.12813 -3.3869 5
      vertex -1.73553 -3.60388 5
    endloop
  endfacet
  facet normal -0 0 1
    outer loop
      vertex -2.49396 3.12733 5
      vertex -2.12813 -3.3869 5
      vertex -2.12813 3.3869 5
    endloop
  endfacet
  facet normal 0 0 1
    outer loop
      vertex -2.49396 3.12733 5
      vertex -2.49396 -3.12733 5
      vertex -2.12813 -3.3869 5
    endloop
  endfacet
  facet normal -0 0 1
    outer loop
      vertex -2.82843 2.82843 5
      vertex -2.49396 -3.12733 5
      vertex -2.49396 3.12733 5
    endloop
  endfacet
  facet normal 0 0 1
    outer loop
      vertex -2.82843 2.82843 5
      vertex -2.82843 -2.82843 5
      vertex -2.49396 -3.12733 5
    endloop
  endfacet
  facet normal -0 0 1
    outer loop
      vertex -3.12733 2.49396 5
      vertex -2.82843 -2.82843 5
      vertex -2.82843 2.82843 5
    endloop
  endfacet
  facet normal 0 0 1
    outer loop
      vertex -3.12733 2.49396 5
      vertex -3.12733 -2.49396 5
      vertex -2.82843 -2.82843 5
    endloop
  endfacet
  facet normal -0 0 1
    outer loop
      vertex -3.3869 2.12813 5
      vertex -3.12733 -2.49396 5
      vertex -3.12733 2.49396 5
    endloop
  endfacet
  facet normal 0 0 1
    outer loop
      vertex -3.3869 2.12813 5
      vertex -3.3869 -2.12813 5
      vertex -3.12733 -2.49396 5
    endloop
  endfacet
  facet normal -0 0 1
    outer loop
      vertex -3.60388 1.73553 5
      vertex -3.3869 -2.12813 5
      vertex -3.3869 2.12813 5
    endloop
  endfacet
  facet normal 0 0 1
    outer loop
      vertex -3.60388 1.73553 5
      vertex -3.60388 -1.73553 5
      vertex -3.3869 -2.12813 5
    endloop
  endfacet
  facet normal -0 0 1
    outer loop
      vertex -3.77553 1.32112 5
      vertex -3.60388 -1.73553 5
      vertex -3.60388 1.73553 5
    endloop
  endfacet
  facet normal 0 0 1
    outer loop
      vertex -3.77553 1.32112 5
      vertex -3.77553 -1.32112 5
      vertex -3.60388 -1.73553 5
    endloop
  endfacet
  facet normal -0 0 1
    outer loop
      vertex -3.89971 0.890084 5
      vertex -3.77553 -1.32112 5
      vertex -3.77553 1.32112 5
    endloop
  endfacet
  facet normal 0 0 1
    outer loop
      vertex -3.89971 0.890084 5
      vertex -3.89971 -0.890084 5
      vertex -3.77553 -1.32112 5
    endloop
  endfacet
  facet normal -0 0 1
    outer loop
      vertex -3.97485 0.447858 5
      vertex -3.89971 -0.890084 5
      vertex -3.89971 0.890084 5
    endloop
  endfacet
  facet normal 0 0 1
    outer loop
      vertex -3.97485 0.447858 5
      vertex -3.97485 -0.447858 5
      vertex -3.89971 -0.890084 5
    endloop
  endfacet
  facet normal 0 -0 1
    outer loop
      vertex -3.97485 -0.447858 5
      vertex -3.97485 0.447858 5
      vertex -4 4.89843e-016 5
    endloop
  endfacet
endsolid OpenSCAD_Model
